<svg xmlns="http://www.w3.org/2000/svg" xmlns:svg="http://www.w3.org/2000/svg" id="svg2" width="2222.488" height="622.26" version="1.1" viewBox="-194 128 1175.07 319.594"><metadata id="metadata186"/><rect style="fill:none;fill-opacity:0;stroke:#000;stroke-width:2" id="rect4" width="806" height="327" x="-9.6" y="124.144"/><g id="g6" transform="translate(-1.6002426,-5.8559115)"><rect style="fill:#fff" id="rect8" width="159" height="104" x="4.5" y="189"/><rect style="fill:none;fill-opacity:0;stroke:brown;stroke-width:2" id="rect10" width="159" height="104" x="4.5" y="189"/></g><g id="g12" transform="translate(-1.6002426,-5.8559115)"><rect style="fill:#fff" id="rect14" width="94" height="77" x="49.5" y="204"/><rect style="fill:none;fill-opacity:0;stroke:#00f;stroke-width:2" id="rect16" width="94" height="77" x="49.5" y="204"/></g><text style="font-style:normal;font-weight:400;font-size:12.80000019px;font-family:sanserif;text-anchor:start;fill:#00f" id="text18" x="58.4" y="218.144"><tspan id="tspan20" x="58.4" y="218.144">sink</tspan> <tspan id="tspan22" x="58.4" y="234.144">crop</tspan> <tspan id="tspan24" x="58.4" y="250.144">selection</tspan></text><text style="font-style:normal;font-weight:400;font-size:12.80000019px;font-family:sanserif;text-anchor:start;fill:brown" id="text30" x="6.938" y="152.058"><tspan id="tspan32" x="6.938" y="152.058">sink media</tspan> <tspan id="tspan34" x="6.938" y="168.058">bus format</tspan></text><g id="g36" transform="translate(-1.6002426,-5.8559115)"><rect style="fill:#fff" id="rect38" width="165.2" height="172.478" x="333.644" y="185.65"/><rect style="fill:none;fill-opacity:0;stroke:#0f0;stroke-width:2" id="rect40" width="165.2" height="172.478" x="333.644" y="185.65"/></g><line style="fill:none;fill-opacity:0;stroke:#e60505;stroke-width:2;stroke-dasharray:4" id="line42" x1="332.044" x2="47.9" y1="352.272" y2="275.144"/><line style="fill:none;fill-opacity:0;stroke:#e60505;stroke-width:2;stroke-dasharray:4" id="line44" x1="332.044" x2="47.9" y1="179.794" y2="198.144"/><line style="fill:none;fill-opacity:0;stroke:#e60505;stroke-width:2;stroke-dasharray:4" id="line46" x1="497.244" x2="141.9" y1="352.272" y2="275.144"/><line style="fill:none;fill-opacity:0;stroke:#e60505;stroke-width:2;stroke-dasharray:4" id="line48" x1="497.244" x2="141.9" y1="179.794" y2="198.144"/><text style="font-style:normal;font-weight:400;font-size:12.80000019px;font-family:sanserif;text-anchor:start;fill:#0f0" id="text50" x="333.104" y="143.586"><tspan id="tspan52" x="333.104" y="143.586">sink compose</tspan> <tspan id="tspan54" x="333.104" y="159.586">selection (scaling)</tspan></text><g id="g56" transform="translate(-1.6002426,-5.8559115)"><rect style="fill:#fff" id="rect58" width="100.186" height="71.452" x="382.322" y="199.565"/><rect style="fill:none;fill-opacity:0;stroke:#a020f0;stroke-width:2" id="rect60" width="100.186" height="71.452" x="382.322" y="199.565"/></g><text style="font-style:normal;font-weight:400;font-size:12.80000019px;font-family:sanserif;text-anchor:start;fill:#a020f0" id="text62" x="541.722" y="143.586"><tspan id="tspan64" x="541.722" y="143.586">source</tspan> <tspan id="tspan66" x="541.722" y="159.586">crop</tspan> <tspan id="tspan68" x="541.722" y="175.586">selection</tspan></text><text style="font-style:normal;font-weight:400;font-size:12.80000019px;font-family:sanserif;text-anchor:start;fill:#8b6914" id="text70" x="689.9" y="151.272"><tspan id="tspan72" x="689.9" y="151.272">source media</tspan> <tspan id="tspan74" x="689.9" y="167.272">bus format</tspan></text><g id="g76" transform="translate(-1.6002426,-5.8559115)"><rect style="fill:#fff" id="rect78" width="100.186" height="71.452" x="690.488" y="225.834"/><rect style="fill:none;fill-opacity:0;stroke:#8b6914;stroke-width:2" id="rect80" width="100.186" height="71.452" x="690.488" y="225.834"/></g><line style="fill:none;fill-opacity:0;stroke:#e60505;stroke-width:2;stroke-dasharray:4" id="line82" x1="688.888" x2="380.722" y1="291.43" y2="265.162"/><line style="fill:none;fill-opacity:0;stroke:#e60505;stroke-width:2;stroke-dasharray:4" id="line84" x1="688.888" x2="380.722" y1="219.978" y2="193.709"/><line style="fill:none;fill-opacity:0;stroke:#e60505;stroke-width:2;stroke-dasharray:4" id="line86" x1="789.074" x2="480.908" y1="291.43" y2="265.162"/><line style="fill:none;fill-opacity:0;stroke:#e60505;stroke-width:2;stroke-dasharray:4" id="line88" x1="789.074" x2="480.908" y1="219.978" y2="193.709"/><g id="g90" transform="translate(-1.6002426,-5.8559115)"><circle style="fill:#fff" id="ellipse92" cx="808.1" cy="249.984" r="8.5"/><circle style="fill:none;fill-opacity:0;stroke:#000;stroke-width:2" id="ellipse94" cx="808.1" cy="249.984" r="8.5"/><circle style="fill:none;fill-opacity:0;stroke:#000;stroke-width:2" id="ellipse96" cx="808.1" cy="249.984" r="8.5"/></g><g id="g98" transform="translate(-1.6002426,-5.8559115)"><line style="fill:none;fill-opacity:0;stroke:#000;stroke-width:2" id="line100" x1="816.6" x2="972.934" y1="249.984" y2="250.012"/><polygon style="fill:#000" id="polygon102" points="970.435 245.012 980.434 250.014 970.433 255.012 972.934 250.012"/><polygon style="fill:none;fill-opacity:0;stroke:#000;stroke-width:2" id="polygon104" points="970.435 245.012 980.434 250.014 970.433 255.012 972.934 250.012"/></g><text style="font-style:normal;font-weight:400;font-size:12.80000019px;font-family:sanserif;text-anchor:start;fill:#000" id="text106" x="840.308" y="233.944"><tspan id="tspan108" x="840.308" y="233.944">pad 1 (source)</tspan></text><g id="g110" transform="translate(-1.6002426,-5.8559115)"><circle style="fill:#fff" id="ellipse112" cx="-20.398" cy="241.512" r="8.5"/><circle style="fill:none;fill-opacity:0;stroke:#000;stroke-width:2" id="ellipse114" cx="-20.398" cy="241.512" r="8.5"/><circle style="fill:none;fill-opacity:0;stroke:#000;stroke-width:2" id="ellipse116" cx="-20.398" cy="241.512" r="8.5"/></g><g id="g118" transform="translate(-1.6002426,-5.8559115)"><line style="fill:none;fill-opacity:0;stroke:#000;stroke-width:2" id="line120" x1="-192.398" x2="-38.634" y1="241.8" y2="241.529"/><polygon style="fill:#000" id="polygon122" points="-41.143 236.534 -31.134 241.516 -41.125 246.534 -38.634 241.529"/><polygon style="fill:none;fill-opacity:0;stroke:#000;stroke-width:2" id="polygon124" points="-41.143 236.534 -31.134 241.516 -41.125 246.534 -38.634 241.529"/></g><text style="font-style:normal;font-weight:400;font-size:12.80000019px;font-family:sanserif;text-anchor:start;fill:#000" id="text126" x="-149.458" y="223.944"><tspan id="tspan128" x="-149.458" y="223.944">pad 0 (sink)</tspan></text><rect style="fill:none;fill-opacity:0;stroke:#a020f0;stroke-width:2" id="rect130" width="100.186" height="71.452" x="388.222" y="270.81"/><g id="g132" transform="translate(-1.6002426,-5.8559115)"><rect style="fill:#fff" id="rect134" width="100.186" height="71.452" x="689.988" y="345.934"/><rect style="fill:none;fill-opacity:0;stroke:#8b6914;stroke-width:2" id="rect136" width="100.186" height="71.452" x="689.988" y="345.934"/></g><line style="fill:none;fill-opacity:0;stroke:#e60505;stroke-width:2;stroke-dasharray:4" id="line138" x1="688.388" x2="388.222" y1="411.53" y2="342.262"/><line style="fill:none;fill-opacity:0;stroke:#e60505;stroke-width:2;stroke-dasharray:4" id="line140" x1="688.388" x2="388.222" y1="340.078" y2="270.81"/><line style="fill:none;fill-opacity:0;stroke:#e60505;stroke-width:2;stroke-dasharray:4" id="line142" x1="788.574" x2="488.408" y1="411.53" y2="342.262"/><line style="fill:none;fill-opacity:0;stroke:#e60505;stroke-width:2;stroke-dasharray:4" id="line144" x1="788.574" x2="488.408" y1="340.078" y2="270.81"/><g id="g146" transform="translate(-1.6002426,-5.8559115)"><circle style="fill:#fff" id="ellipse148" cx="805.6" cy="384.084" r="8.5"/><circle style="fill:none;fill-opacity:0;stroke:#000;stroke-width:2" id="ellipse150" cx="805.6" cy="384.084" r="8.5"/><circle style="fill:none;fill-opacity:0;stroke:#000;stroke-width:2" id="ellipse152" cx="805.6" cy="384.084" r="8.5"/></g><g id="g154" transform="translate(-1.6002426,-5.8559115)"><line style="fill:none;fill-opacity:0;stroke:#000;stroke-width:2" id="line156" x1="814.1" x2="970.434" y1="384.084" y2="384.112"/><polygon style="fill:#000" id="polygon158" points="967.935 379.112 977.934 384.114 967.933 389.112 970.434 384.112"/><polygon style="fill:none;fill-opacity:0;stroke:#000;stroke-width:2" id="polygon160" points="967.935 379.112 977.934 384.114 967.933 389.112 970.434 384.112"/></g><text style="font-style:normal;font-weight:400;font-size:12.80000019px;font-family:sanserif;text-anchor:start;fill:#000" id="text162" x="837.808" y="368.044"><tspan id="tspan164" x="837.808" y="368.044">pad 2 (source)</tspan></text><g id="g166" transform="translate(-1.6002426,-5.8559115)"><line style="fill:none;fill-opacity:0;stroke:#a020f0;stroke-width:2" id="line168" x1="546" x2="492.157" y1="191" y2="198.263"/><polygon style="fill:#a020f0" id="polygon170" points="495.303 202.884 484.724 199.266 493.966 192.974 492.157 198.263"/><polygon style="fill:none;fill-opacity:0;stroke:#a020f0;stroke-width:2" id="polygon172" points="495.303 202.884 484.724 199.266 493.966 192.974 492.157 198.263"/></g><g id="g174" transform="translate(-1.6002426,-5.8559115)"><line style="fill:none;fill-opacity:0;stroke:#a020f0;stroke-width:2" id="line176" x1="546.908" x2="495.383" y1="190.725" y2="268.548"/><polygon style="fill:#a020f0" id="polygon178" points="500.932 269.224 491.242 274.802 492.594 263.703 495.383 268.548"/><polygon style="fill:none;fill-opacity:0;stroke:#a020f0;stroke-width:2" id="polygon180" points="500.932 269.224 491.242 274.802 492.594 263.703 495.383 268.548"/></g></svg>